<?xml version="1.0" standalone="no"?>
<!DOCTYPE svg PUBLIC "-//W3C//DTD SVG 20010904//EN"
 "http://www.w3.org/TR/2001/REC-SVG-20010904/DTD/svg10.dtd">
<svg version="1.0" xmlns="http://www.w3.org/2000/svg"
 width="750.000000pt" height="750.000000pt" viewBox="0 0 750.000000 750.000000"
 preserveAspectRatio="xMidYMid meet">
<metadata>
Created by potrace 1.14, written by Peter Selinger 2001-2017
</metadata>
<g transform="translate(0.000000,750.000000) scale(0.100000,-0.100000)"
fill="#000000" stroke="none">
<path d="M4415 6529 c-60 -11 -193 -31 -295 -44 -326 -44 -535 -73 -560 -79
-14 -4 -113 -17 -220 -31 -107 -14 -235 -31 -285 -39 -49 -7 -136 -19 -193
-26 l-103 -12 -1361 -2727 c-749 -1499 -1363 -2729 -1365 -2733 -2 -4 15 -21
38 -38 53 -38 93 -39 301 -6 84 14 182 27 218 31 36 3 101 12 145 19 44 8 121
19 170 26 50 6 160 22 245 35 85 13 184 27 220 30 36 4 135 17 220 30 85 13
199 29 252 35 54 7 106 18 115 25 10 7 414 804 898 1771 565 1129 885 1759
895 1759 8 0 52 -65 101 -150 47 -82 128 -222 179 -310 51 -88 103 -178 115
-200 13 -22 64 -112 115 -200 204 -352 310 -541 310 -551 0 -5 -200 -411 -445
-902 -245 -490 -445 -896 -445 -901 0 -5 16 -18 36 -30 50 -30 90 -29 319 10
33 5 123 18 200 29 77 10 187 25 245 34 58 8 159 22 225 31 66 9 149 20 185
26 36 5 115 17 175 25 61 9 137 20 170 25 33 5 128 18 210 28 169 22 377 51
570 81 72 11 203 29 292 40 90 11 168 23 175 25 7 3 85 14 173 25 88 11 185
24 215 30 30 6 127 19 215 30 244 30 300 42 299 62 -1 15 -33 71 -219 393 -29
50 -77 133 -107 185 -74 128 -179 310 -192 335 -6 11 -31 54 -55 95 -24 41
-61 104 -81 140 -45 78 -191 328 -266 457 -30 50 -54 94 -54 97 0 4 -15 30
-34 59 -29 45 -234 400 -296 512 -12 22 -46 81 -75 130 -109 187 -155 267
-155 273 0 3 -6 13 -14 21 -7 9 -35 57 -61 106 -26 50 -67 122 -90 160 -23 39
-61 106 -84 150 -47 92 -64 122 -108 190 -17 28 -97 165 -178 305 -81 140
-170 296 -199 345 -30 50 -135 232 -235 406 -177 307 -184 316 -235 347 -60
37 -76 38 -231 11z"/>
</g>
</svg>
